<?xml version="1.0" encoding="utf-8"?>
<!DOCTYPE svg PUBLIC "-//W3C//DTD SVG 1.1//EN" "http://www.w3.org/Graphics/SVG/1.1/DTD/svg11.dtd"><svg xmlns:svg="http://www.w3.org/2000/svg" xmlns="http://www.w3.org/2000/svg" xmlns:xlink="http://www.w3.org/1999/xlink" version="1.1" viewBox="0 0 518.7625 136.575" width="518.7625" height="136.575"><g transform="matrix(1.25,0,0,-1.25,0,136.575)" style="fill:#f68b1b;fill-opacity:1;fill-rule:evenodd;stroke:none"><path style="fill:#00acdf" d="m8.40273,12.857c0,0 20.57537,-25.9511 85.21327,-4.11481 0,0 4.0246,11.18081-0.698,30.09331 0,0-1.1078,4.9715-3.6891,8.4844 0,0-1.1461,2.7578-7.0141,1.4485 0,0-12.9062,-2.4301-30.3707,-11.245 0,0-12.907,-6.7218-27.948,-14.8097 0,0-3.8871,-2.4356-7.9637,-5.1094L8.40273,12.857zm-5.42695,7.8075c0,0-8.24766,11.3699 2.71953,31.8937 0,0 4.31989,9.2551 16.29419,20.0207 0,0 9.848,9.557 25.3472,18.2074l2.7196,1.4102c0,0 3.0218,-5.1254 4.9355,-12.9813 0,0 2.0141,-7.3414 1.9137,-16.1933 0,0-0.4032,-5.4278-2.5184,-7.7442 0,0-6.2445,-6.5464-13.5859,-11.9742 0,0-9.0532,-6.3453-18.3086,-11.9742 0,0-7.4418,-4.3309-18.10705,-9.8594L2.97578,20.6645 z M 80.0629,86.5816c0,4.9942 4.0484,9.0426 9.0426,9.0426 4.9941,0 9.0422,-4.0484 9.0422,-9.0426 0,-4.9933-4.0481,-9.0418-9.0422,-9.0418-4.9942,0-9.0426,4.0485-9.0426,9.0418zm68.7881,13.6614c0,0-5.741,5.226-20.928,7.945 0,0-9.165,1.713-20.222,0.806 0,0-14.4807,-0.906-28.4697,-5.126 0,0-5.8196,-1.521-12.8696,-4.2297l-0.9066,-0.4028c0,0-0.3024,-6.4238 0,-13.2722 0,0 0.1008,-8.4492 2.9097,-13.9891 0,0 1.1875,-2.809 3.827,-5.5281 0,0 1.177,-0.882 2.6539,-0.6133 0,0 4.0645,0.3442 7.2055,1.334 0,0 10.2715,2.9676 16.9633,5.9246 0,0 38.1285,18.5191 48.0885,25.9895l1.748,1.1621zm-35.83,-82.709c0,0 21.787,10.5824 37.661,30.9691 0,0 14.162,16.652 10.271,35.4821 0,0-0.311,2.8011-3.735,8.4039 0,0-8.715,-3.8907-23.188,-12.9172 0,0-5.758,-3.4235-15.095,-10.1153 0,0-3.891,-2.3343-10.427,-8.4039 0,0-5.292,-4.5129-4.98,-14.1613 0,0 0.311,-8.7148 4.668,-19.9199 0,0 1.09,-2.9567 4.047,-8.2481l0.778,-1.0894" /><path d="m205.386,31.7363c0,1.7473-1.142,3.4594-3.282,3.4594-1.818,0-4.242,-1.0348-6.667,-3.8156 0,2.3176-0.892,3.7441-3.031,3.7441-1.819,0-4.101,-0.9273-6.561,-3.7797 0.356,1.3543 0.356,2.7813-0.178,3.9223l-2.604,-1.2125c0.393,-1.3906 0.322,-2.1039-0.142,-4.3504l-2.71,-12.7297 2.674,0 2.46,11.5891c2.104,2.6387 4.529,4.1004 5.884,4.1004 1.105,0 1.426,-0.6059 1.426,-1.4981 0,-0.3203-0.177,-1.2832-0.356,-2.0676l-2.568,-12.1238 2.818,0 2.495,11.6602c1.891,2.3176 4.208,4.0293 5.599,4.0293 1.211,0 1.747,-0.5352 1.747,-1.5692 0,-0.4992-0.072,-1.105-0.214,-1.7109l-2.638,-12.4094 2.852,0 2.71,12.6946c0.142,0.7128 0.286,1.5683 0.286,2.0675" /><path d="m224.944,35.0168-2.852,-0.4633-2.389,-11.2676c-1.926,-3.0664-4.6,-4.5285-6.347,-4.5285-1.284,0-1.748,0.5348-1.748,2.1035 0,0.6067 0.108,1.3907 0.322,2.3176l2.496,11.9457-2.853,-0.5351-2.567,-12.0516c-0.143,-0.6785-0.285,-1.7477-0.285,-2.6035 0,-2.532 1.39,-3.5656 3.744,-3.5656 2.211,0 4.563,1.141 6.774,3.7796-0.178,-1.8898 0.322,-2.9597 1.32,-3.9222l2.175,1.7828c-0.891,1.1766-1.035,1.7469-0.463,4.4215l2.673,12.5867zm-7.63,4.1012c0,0.998-0.82,1.8183-1.854,1.8183-0.999,0-1.819,-0.8203-1.819,-1.8183 0,-1.0348 0.82,-1.8907 1.854,-1.8907 1.034,0 1.819,0.8559 1.819,1.8907zm7.38,0c0,0.998-0.855,1.8183-1.853,1.8183-1.034,0-1.855,-0.8203-1.855,-1.8183 0,-1.0348 0.857,-1.8907 1.891,-1.8907 0.998,0 1.817,0.8559 1.817,1.8907" /><path d="m242.851,31.5941c0,2.1747-1.356,3.5301-3.532,3.5301-2.281,0-4.955,-1.2125-6.881,-3.7797 0.464,1.8184 0.214,2.7813-0.178,3.9223l-2.603,-1.2125c0.356,-1.3555 0.356,-2.1039-0.142,-4.3855l-2.711,-12.6946 2.711,0 2.46,11.5891c2.389,2.9949 4.778,4.1355 6.204,4.1355 1.105,0 1.712,-0.6058 1.712,-1.782 0,-0.4281-0.072,-0.9984-0.286,-1.9258l-2.567,-12.0168 2.816,0 2.889,13.4789c0.071,0.3922 0.108,0.784 0.108,1.141" /><path d="m259.217,34.0895c-1.319,0.8562-3.28,1.3554-5.135,1.3554-4.314,0-7.238,-2.3176-7.238,-5.5265 0,-2.0684 0.998,-3.2809 3.459,-4.3508l2.103,-0.927c1.747,-0.7843 2.246,-1.5336 2.246,-2.9953 0,-1.8183-1.853,-2.9953-4.314,-2.9953-1.961,0-3.673,0.5711-5.277,1.6758l-1.141,-2.1391c1.568,-1.1051 3.887,-1.7117 6.133,-1.7117 4.458,0 7.737,2.3176 7.737,6.1688 0,1.9613-0.998,3.3164-3.743,4.4929l-2.246,0.9625c-1.498,0.6422-1.927,1.2844-1.927,2.4961 0,1.6758 1.712,2.6387 4.03,2.6387 1.569,0 2.782,-0.5352 4.172,-1.2836l1.141,2.1391" /><path d="m271.695,34.7316-4.422,0c0.322,1.5332 0.999,3.8157 1.462,5.1348l-3.03,-0.6422c-0.428,-1.3547-0.892,-3.0664-1.248,-4.4926l-2.354,0-0.392,-2.1039 2.317,0-2.246,-10.7324c-0.214,-0.9273-0.285,-1.9613-0.285,-2.6031 0,-1.8539 1.07,-2.8887 3.138,-2.8887 1.248,0 2.282,0.25 3.28,0.7133l0,1.7832c-0.57,-0.25-1.068,-0.3562-1.853,-0.3562-1.249,0-1.784,0.4277-1.784,1.7468 0,0.4992 0.072,1.1407 0.25,1.9254l2.211,10.4117 3.851,0 1.105,2.1039" /><path d="m283.105,30.5598c0,-0.891-0.357,-1.6043-0.892,-2.1746-0.927,-0.8918-2.317,-1.3551-5.526,-1.3551-0.536,0-1.32,0-1.819,0.0355 0.927,3.6723 3.245,5.9547 5.527,5.9547 1.961,0 2.71,-1.1055 2.71,-2.4605zm2.817,0.0715c0,2.7812-1.747,4.5996-5.099,4.5996-2.14,0-4.065,-0.82-5.848,-2.4957-2.604,-2.3891-3.922,-6.3118-3.922,-9.7344 0,-4.0656 2.531,-6.4188 5.811,-6.4188 3.567,0 5.421,0.82 7.203,2.6391l-1.176,1.7113 C 281.215,19.4348 279.896,18.9 277.685,18.9c-1.89,0-3.531,1.3195-3.531,3.8152 0,0.677 0.073,1.4266 0.25,2.2465 0.785,-0.0351 1.534,-0.0715 2.211,-0.0715 3.887,0 6.169,0.6422 7.666,2.0328 0.999,0.927 1.641,2.2106 1.641,3.7083" /><path d="m300.127,35.0168c-0.356,0.1074-0.678,0.1789-1.319,0.1789-1.676,0-4.03,-1.5695-5.741,-4.1727 0.427,2.1043 0.393,2.9239-0.143,4.2438l-2.603,-1.2125c0.393,-1.284 0.357,-2.3535-0.215,-5.0277l-2.566,-12.0524 2.709,0 2.355,11.125c1.71,2.5676 3.53,4.0293 5.206,4.0293 0.534,0 0.784,-0.0355 1.105,-0.1422l1.212,3.0305" /><path id="h" d="m200.344,67.6074c0,2.1043-1.391,3.5305-4.03,3.5305-2.175,0-4.671,-1.1051-6.382,-3.1375 0.214,0.6418 0.57,2.0676 0.713,2.7098l0.535,2.4957c0.499,2.2828 0.641,4.7781 0.285,5.8836l-3.994,-1.3555c0.285,-1.1406 0.25,-2.6738-0.321,-5.277l-4.207,-19.8254 3.886,0 2.496,11.7668c1.534,1.9614 3.816,3.4231 5.278,3.4231 1.069,0 1.64,-0.4988 1.675,-1.5332 0,-0.3563-0.106,-0.9274-0.214,-1.4969l-2.566,-12.1598 3.85,0 2.71,12.7657c0.214,0.9625 0.286,1.6402 0.286,2.2101" /><path id="o" d="m215.235,64.8977c0,-4.386-1.89,-9.7344-5.383,-9.7344-1.748,0-2.783,0.9633-2.783,3.1379 0,4.1008 1.855,9.8058 5.42,9.8058 1.606,0 2.746,-0.7843 2.746,-3.2093zm4.244,-0.1426c0,3.9586-2.247,6.3472-6.382,6.3472-5.992,0-10.235,-5.4914-10.235,-12.4445 0,-4.1367 2.282,-6.4535 6.276,-6.4535 6.632,0 10.341,5.9543 10.341,12.5508" /><path id="c" d="m236.906,69.2836c-1.249,1.284-2.889,1.8898-4.599,1.8898-2.284,0-4.066,-0.7129-5.705,-2.1039-2.461,-2.0679-4.601,-6.3824-4.601,-10.6972 0,-3.9223 2.032,-6.168 6.062,-6.168 2.46,0 4.385,0.7836 6.382,2.3883l-1.426,2.4601c-1.319,-1.1761-2.746,-1.8894-4.1,-1.8894-1.712,0-2.675,1.0699-2.675,3.209 0,2.7812 1.212,6.5609 2.496,8.1304 0.784,0.9266 1.855,1.4614 2.924,1.4614 1.07,0 2.176,-0.3914 3.103,-1.3188l2.139,2.6383" /><use xlink:href="#h" transform="translate(52.241,0)" /><path id="s" d="m271.188,69.7473c-1.426,0.8918-3.495,1.5332-5.634,1.5332-5.278,0-7.88,-2.9957-7.88,-6.1332 0,-2.2461 1.248,-3.4942 3.387,-4.3145l2.069,-0.7848c1.64,-0.641 2.281,-1.2121 2.281,-2.3531 0,-1.4969-1.498,-2.6027-3.459,-2.6027-2.032,0-4.136,0.7484-5.634,1.7832l-1.568,-2.8891c1.854,-1.1761 4.172,-1.8894 6.667,-1.8894 5.313,0 8.345,3.0312 8.345,6.739 0,2.1395-1.462,3.4235-3.673,4.2789l-2.14,0.8204c-1.426,0.5347-1.926,1.1406-1.926,2.1043 0,1.4968 1.392,2.2101 3.282,2.2101 1.425,0 2.816,-0.3922 4.314,-1.248l1.569,2.7457" /><use xlink:href="#c" transform="translate(50.825,0)" /><use xlink:href="#h" transform="translate(105.066,0)" /><path d="m325.115,71.0309-3.958,-0.7489-2.496,-11.5882c-1.213,-1.9973-3.388,-3.5305-4.956,-3.5305-0.892,0-1.427,0.6058-1.427,1.7121 0,0.5344 0.143,1.4617 0.358,2.3891l2.495,11.8378-4.029,-0.7492-2.497,-11.8383c-0.213,-1.0335-0.32,-1.9964-0.32,-2.7457 0,-2.4242 1.533,-3.6722 4.136,-3.6722 2.176,0 4.208,1.1054 5.919,2.9594-0.035,-1.3188 0.392,-2.3172 1.07,-3.102l3.28,1.7121c-0.677,0.9981-0.82,2.1742-0.428,4.0285l2.853,13.336" /><path d="m335.121,79.0895-4.137,-1.3555c0.357,-1.1762 0.214,-2.9238-0.285,-5.3125l-3.173,-14.8692c-0.214,-0.9984-0.357,-1.9968-0.357,-2.5316 0,-1.6758 1.07,-2.7812 3.138,-2.7812 0.927,0 1.819,0.1425 2.639,0.4632l-0.214,2.3895c-0.178,-0.0715-0.392,-0.0715-0.606,-0.0715-0.57,0-0.856,0.3215-0.856,0.9625 0,0.4281 0.107,1.1059 0.428,2.5316l3.102,14.5485c0.499,2.2465 0.606,4.9207 0.321,6.0262" /><use xlink:href="#s" transform="translate(80.538,0)" /><path d="m366.024,65.0047c0,-2.2817-0.82,-5.8477-2.175,-7.8449-0.713,-1.0332-1.961,-1.925-3.565,-1.925-1.178,0-2.389,0.3562-2.96,0.9269l1.747,8.2012c1.605,2.2824 3.459,3.3523 4.885,3.3523 1.463,0 2.068,-0.8211 2.068,-2.7105zm4.245,0.1426c0,3.6015-1.677,5.8836-4.744,5.8836-2.139,0-4.493,-1.1766-6.061,-3.0668 0.178,1.248-0.036,2.5675-0.393,3.2808l-3.636,-1.4976c0.356,-1.141 0.463,-2.2821 0,-4.4575l-4.315,-20.3242 3.993,0.9274 1.177,5.5617c0.107,0.4996 0.285,1.3906 0.285,1.5695 0.927,-0.5351 2.319,-0.7847 3.923,-0.7847 2.317,0 4.671,1.0699 6.347,2.9238 2.032,2.2824 3.424,6.775 3.424,9.984" /><use xlink:href="#o" transform="translate(169.168,0)" /><path d="m403.293,70.8168c-0.535,0.2141-0.856,0.2855-1.498,0.2855-1.747,0-3.743,-1.3195-5.384,-3.3871 0.249,1.2473 0.108,2.6028-0.285,3.5297l-3.637,-1.4976c0.356,-1.2477 0.392,-2.6032-0.143,-5.0633l-2.568,-12.0524 3.887,0 2.461,11.5887c1.568,2.2106 2.959,3.1735 4.208,3.1735 0.534,0 0.891,-0.0711 1.247,-0.2848l1.712,3.7078" /><path d="m415.012,70.6738-4.314,0c0.357,1.7121 0.962,3.816 1.462,5.3492l-4.173,-0.9628c-0.464,-1.3547-0.819,-2.7454-1.176,-4.3864l-2.033,0-0.569,-2.7808 2.031,0-2.175,-10.2692c-0.178,-0.8914-0.25,-1.8183-0.25,-2.4605 0,-1.8184 1.356,-3.0313 3.781,-3.0313 1.248,0 2.495,0.25 3.744,0.7496l0,2.4243c-0.571,-0.2496-1.249,-0.3567-1.819,-0.3567-1.141,0-1.676,0.3567-1.676,1.4977 0,0.4636 0.071,1.0695 0.214,1.7476l2.032,9.6985 3.46,0 1.461,2.7808" /></g></svg>